<svg width="116" height="16" viewBox="0 0 116 16" fill="none" xmlns="http://www.w3.org/2000/svg">
<path d="M0.44 3.44C0.44 1.57333 1.4 0.639999 3.32 0.639999H7C8.92 0.639999 9.88 1.57333 9.88 3.44V4.08C9.88 4.24 9.8 4.32 9.64 4.32H8.6C8.44 4.32 8.36 4.24 8.36 4.08V3.44C8.36 2.53333 7.90667 2.08 7 2.08H3.32C2.41333 2.08 1.96 2.53333 1.96 3.44V9.36C1.96 10.2667 2.41333 10.72 3.32 10.72H7C7.90667 10.72 8.36 10.2667 8.36 9.36V8.72C8.36 8.56 8.44 8.48 8.6 8.48H9.64C9.8 8.48 9.88 8.56 9.88 8.72V9.36C9.88 11.2267 8.92 12.16 7 12.16H3.32C1.4 12.16 0.44 11.2267 0.44 9.36V3.44ZM13.92 12C13.76 12 13.68 11.92 13.68 11.76V5.12H11.2C11.04 5.12 10.96 5.04 10.96 4.88V4.08C10.96 3.92 11.04 3.84 11.2 3.84H17.52C17.68 3.84 17.76 3.92 17.76 4.08V4.88C17.76 5.04 17.68 5.12 17.52 5.12H15.04V11.76C15.04 11.92 14.96 12 14.8 12H13.92ZM18.685 9.52C18.685 7.97333 19.485 7.2 21.085 7.2H24.045V6.16C24.045 5.79733 23.933 5.50933 23.709 5.296C23.4957 5.072 23.2077 4.96 22.845 4.96H21.725C21.3623 4.96 21.069 5.072 20.845 5.296C20.6317 5.50933 20.525 5.79733 20.525 6.16C20.525 6.32 20.445 6.4 20.285 6.4H19.405C19.245 6.4 19.165 6.32 19.165 6.16C19.165 5.36 19.3783 4.74667 19.805 4.32C20.2423 3.89333 20.8823 3.68 21.725 3.68H22.845C23.6877 3.68 24.3223 3.89333 24.749 4.32C25.1863 4.74667 25.405 5.36 25.405 6.16V11.76C25.405 11.92 25.325 12 25.165 12H24.285C24.125 12 24.045 11.92 24.045 11.76V11.2H23.965C23.8797 11.3813 23.757 11.5413 23.597 11.68C23.4583 11.7973 23.277 11.904 23.053 12C22.829 12.1067 22.5463 12.16 22.205 12.16H21.085C19.485 12.16 18.685 11.3867 18.685 9.84V9.52ZM20.045 9.84C20.045 10.16 20.1357 10.416 20.317 10.608C20.509 10.7893 20.765 10.88 21.085 10.88H22.365C22.845 10.88 23.245 10.72 23.565 10.4C23.885 10.08 24.045 9.68 24.045 9.2V8.48H21.085C20.765 8.48 20.509 8.576 20.317 8.768C20.1357 8.94933 20.045 9.2 20.045 9.52V9.84ZM29.5981 12C29.4381 12 29.3581 11.92 29.3581 11.76V5.12H26.8781C26.7181 5.12 26.6381 5.04 26.6381 4.88V4.08C26.6381 3.92 26.7181 3.84 26.8781 3.84H33.1981C33.3581 3.84 33.4381 3.92 33.4381 4.08V4.88C33.4381 5.04 33.3581 5.12 33.1981 5.12H30.7181V11.76C30.7181 11.92 30.6381 12 30.4781 12H29.5981ZM39.7551 4.08C39.7871 3.99467 39.8298 3.936 39.8831 3.904C39.9471 3.86133 40.0378 3.84 40.1551 3.84H41.1151C41.2858 3.84 41.3391 3.92 41.2751 4.08L38.1551 12C37.9311 12.5653 37.7125 13.04 37.4991 13.424C37.2858 13.808 37.0565 14.1173 36.8111 14.352C36.5658 14.5973 36.2991 14.7733 36.0111 14.88C35.7231 14.9867 35.3978 15.04 35.0351 15.04H34.7151C34.5551 15.04 34.4751 14.96 34.4751 14.8V14C34.4751 13.84 34.5551 13.76 34.7151 13.76H35.0351C35.4405 13.76 35.7711 13.6267 36.0271 13.36C36.2938 13.0933 36.5498 12.64 36.7951 12L33.6751 4.08C33.6111 3.92 33.6645 3.84 33.8351 3.84H34.7951C34.9125 3.84 34.9978 3.86133 35.0511 3.904C35.1151 3.936 35.1631 3.99467 35.1951 4.08L37.4351 10.08H37.5151L39.7551 4.08ZM43.8238 9.68C43.8238 10.0427 43.9304 10.336 44.1438 10.56C44.3678 10.7733 44.6611 10.88 45.0238 10.88H46.8638C47.2264 10.88 47.5144 10.7733 47.7278 10.56C47.9518 10.336 48.0638 10.0427 48.0638 9.68V9.28C48.0638 9.12 48.1438 9.04 48.3038 9.04H49.1838C49.3438 9.04 49.4237 9.12 49.4237 9.28V9.68C49.4237 10.48 49.2051 11.0933 48.7678 11.52C48.3411 11.9467 47.7064 12.16 46.8638 12.16H45.0238C44.1811 12.16 43.5411 11.9467 43.1038 11.52C42.6771 11.0933 42.4638 10.48 42.4638 9.68V6.16C42.4638 5.36 42.6771 4.74667 43.1038 4.32C43.5411 3.89333 44.1811 3.68 45.0238 3.68H46.8638C47.7064 3.68 48.3411 3.89333 48.7678 4.32C49.2051 4.74667 49.4237 5.36 49.4237 6.16V6.56C49.4237 6.72 49.3438 6.8 49.1838 6.8H48.3038C48.1438 6.8 48.0638 6.72 48.0638 6.56V6.16C48.0638 5.79733 47.9518 5.50933 47.7278 5.296C47.5144 5.072 47.2264 4.96 46.8638 4.96H45.0238C44.6611 4.96 44.3678 5.072 44.1438 5.296C43.9304 5.50933 43.8238 5.79733 43.8238 6.16V9.68ZM58.8737 10.72C59.2364 10.72 59.5244 10.6133 59.7377 10.4C59.9617 10.176 60.0737 9.88267 60.0737 9.52V6.16C60.0737 5.79733 59.9617 5.50933 59.7377 5.296C59.5244 5.072 59.2364 4.96 58.8737 4.96H57.5137C57.0337 4.96 56.6337 5.12 56.3137 5.44C55.9937 5.76 55.8337 6.16 55.8337 6.64V10.72H58.8737ZM55.8337 12V14.8C55.8337 14.96 55.7537 15.04 55.5937 15.04H54.7137C54.5537 15.04 54.4737 14.96 54.4737 14.8V4.08C54.4737 3.92 54.5537 3.84 54.7137 3.84H55.5937C55.7537 3.84 55.8337 3.92 55.8337 4.08V4.64H55.9137C55.9991 4.45867 56.1217 4.29867 56.2817 4.16C56.4204 4.04267 56.6017 3.936 56.8257 3.84C57.0497 3.73333 57.3324 3.68 57.6737 3.68H58.8737C59.7164 3.68 60.3511 3.89333 60.7777 4.32C61.2151 4.74667 61.4337 5.36 61.4337 6.16V9.52C61.4337 10.32 61.2151 10.9333 60.7777 11.36C60.3511 11.7867 59.7164 12 58.8737 12H55.8337ZM69.1531 7.2V6.16C69.1531 5.79733 69.0411 5.50933 68.8171 5.296C68.6038 5.072 68.3158 4.96 67.9531 4.96H66.0331C65.6705 4.96 65.3771 5.072 65.1531 5.296C64.9398 5.50933 64.8331 5.79733 64.8331 6.16V7.2H69.1531ZM64.8331 8.48V9.68C64.8331 10.0427 64.9398 10.336 65.1531 10.56C65.3771 10.7733 65.6705 10.88 66.0331 10.88H67.9531C68.3158 10.88 68.6038 10.7733 68.8171 10.56C69.0411 10.336 69.1531 10.0427 69.1531 9.68V9.6C69.1531 9.44 69.2331 9.36 69.3931 9.36H70.2731C70.4331 9.36 70.5131 9.44 70.5131 9.6V9.68C70.5131 10.48 70.2945 11.0933 69.8571 11.52C69.4305 11.9467 68.7958 12.16 67.9531 12.16H66.0331C65.1905 12.16 64.5505 11.9467 64.1131 11.52C63.6865 11.0933 63.4731 10.48 63.4731 9.68V6.16C63.4731 5.36 63.6865 4.74667 64.1131 4.32C64.5505 3.89333 65.1905 3.68 66.0331 3.68H67.9531C68.7958 3.68 69.4305 3.89333 69.8571 4.32C70.2945 4.74667 70.5131 5.36 70.5131 6.16V8.24C70.5131 8.4 70.4331 8.48 70.2731 8.48H64.8331ZM77.3544 10.24L80.2344 4.08C80.277 3.99467 80.325 3.936 80.3784 3.904C80.4424 3.86133 80.5544 3.84 80.7144 3.84H81.6744C81.8344 3.84 81.9144 3.92 81.9144 4.08V11.76C81.9144 11.92 81.8344 12 81.6744 12H80.7944C80.6344 12 80.5544 11.92 80.5544 11.76V6.48H80.4744L77.9944 11.76C77.9517 11.8453 77.8984 11.9093 77.8344 11.952C77.781 11.984 77.6744 12 77.5144 12H77.1144C76.9544 12 76.8424 11.984 76.7784 11.952C76.725 11.9093 76.677 11.8453 76.6344 11.76L74.1544 6.48H74.0744V11.76C74.0744 11.92 73.9944 12 73.8344 12H72.9544C72.7944 12 72.7144 11.92 72.7144 11.76V4.08C72.7144 3.92 72.7944 3.84 72.9544 3.84H73.9144C74.0744 3.84 74.181 3.86133 74.2344 3.904C74.2984 3.936 74.3517 3.99467 74.3944 4.08L77.2744 10.24H77.3544ZM89.88 6.16C89.88 5.79733 89.768 5.50933 89.544 5.296C89.3307 5.072 89.0427 4.96 88.68 4.96H86.68C86.3173 4.96 86.024 5.072 85.8 5.296C85.5867 5.50933 85.48 5.79733 85.48 6.16V9.68C85.48 10.0427 85.5867 10.336 85.8 10.56C86.024 10.7733 86.3173 10.88 86.68 10.88H88.68C89.0427 10.88 89.3307 10.7733 89.544 10.56C89.768 10.336 89.88 10.0427 89.88 9.68V6.16ZM91.24 9.68C91.24 10.48 91.0213 11.0933 90.584 11.52C90.1573 11.9467 89.5227 12.16 88.68 12.16H86.68C85.8373 12.16 85.1973 11.9467 84.76 11.52C84.3333 11.0933 84.12 10.48 84.12 9.68V6.16C84.12 5.36 84.3333 4.74667 84.76 4.32C85.1973 3.89333 85.8373 3.68 86.68 3.68H88.68C89.5227 3.68 90.1573 3.89333 90.584 4.32C91.0213 4.74667 91.24 5.36 91.24 6.16V9.68ZM94.7994 8.48V11.76C94.7994 11.92 94.7194 12 94.5594 12H93.6794C93.5194 12 93.4394 11.92 93.4394 11.76V4.08C93.4394 3.92 93.5194 3.84 93.6794 3.84H94.5594C94.7194 3.84 94.7994 3.92 94.7994 4.08V7.28H98.8794V4.08C98.8794 3.92 98.9594 3.84 99.1194 3.84H99.9994C100.159 3.84 100.239 3.92 100.239 4.08V11.76C100.239 11.92 100.159 12 99.9994 12H99.1194C98.9594 12 98.8794 11.92 98.8794 11.76V8.48H94.7994ZM104.439 12C104.279 12 104.199 11.92 104.199 11.76V5.12H101.719C101.559 5.12 101.479 5.04 101.479 4.88V4.08C101.479 3.92 101.559 3.84 101.719 3.84H108.039C108.199 3.84 108.279 3.92 108.279 4.08V4.88C108.279 5.04 108.199 5.12 108.039 5.12H105.559V11.76C105.559 11.92 105.479 12 105.319 12H104.439ZM109.204 9.52C109.204 7.97333 110.004 7.2 111.604 7.2H114.564V6.16C114.564 5.79733 114.452 5.50933 114.228 5.296C114.014 5.072 113.726 4.96 113.364 4.96H112.244C111.881 4.96 111.588 5.072 111.364 5.296C111.15 5.50933 111.044 5.79733 111.044 6.16C111.044 6.32 110.964 6.4 110.804 6.4H109.924C109.764 6.4 109.684 6.32 109.684 6.16C109.684 5.36 109.897 4.74667 110.324 4.32C110.761 3.89333 111.401 3.68 112.244 3.68H113.364C114.206 3.68 114.841 3.89333 115.268 4.32C115.705 4.74667 115.924 5.36 115.924 6.16V11.76C115.924 11.92 115.844 12 115.684 12H114.804C114.644 12 114.564 11.92 114.564 11.76V11.2H114.484C114.398 11.3813 114.276 11.5413 114.116 11.68C113.977 11.7973 113.796 11.904 113.572 12C113.348 12.1067 113.065 12.16 112.724 12.16H111.604C110.004 12.16 109.204 11.3867 109.204 9.84V9.52ZM110.564 9.84C110.564 10.16 110.654 10.416 110.836 10.608C111.028 10.7893 111.284 10.88 111.604 10.88H112.884C113.364 10.88 113.764 10.72 114.084 10.4C114.404 10.08 114.564 9.68 114.564 9.2V8.48H111.604C111.284 8.48 111.028 8.576 110.836 8.768C110.654 8.94933 110.564 9.2 110.564 9.52V9.84Z" fill="#1B1C21"/>
</svg>
